<?xml version="1.0" encoding="UTF-8"?>
<svg id="Layer_2" data-name="Layer 2" xmlns="http://www.w3.org/2000/svg" viewBox="0 0 470.4 382.32">
  <defs>
    <style>
      .cls-1 {
        fill: #fff;
        stroke: #231f20;
        stroke-miterlimit: 10;
      }
    </style>
  </defs>
  <g id="Layer_1-2" data-name="Layer 1">
    <polygon class="cls-1" points="1.88 35.73 57.19 58.61 57.73 96.01 52.33 101.65 12.88 95.02 1.88 35.73"/>
    <polygon class="cls-1" points="53.3 101.29 57.11 97.68 68.05 102.06 92.94 125.21 86.41 133.99 58.17 110.81 53.3 101.29"/>
    <polygon class="cls-1" points="86.41 133.99 137.08 179.21 147.72 165.74 92.94 125.21 86.41 133.99"/>
    <path class="cls-1" d="M137.08,179.21l31.91,20.57-15.96,38.3,8.87,4.26,18.44-37.59,32.62,24.82-27.27,139.99,64.86-128.65,109.22,29.08c7.96,4.76,19.63,13.15,29.79,26.95,17.49,23.75,19.58,48.65,19.86,58.87h58.16c2.15-20.28,3.92-51.01,0-88.3-2.66-25.25-3.98-37.88-9.93-48.58-19.84-35.72-75.94-64.2-115.6-53.9-6.72,1.74-19.12,6.2-28.37,0-7.86-5.26-10.03-15.92-10.64-24.11h-26.24l-2.13,34.04c-7.31,3.69-16.08,7.29-26.24,9.93-31,8.07-57.95,2.88-73.05-1.42l-27.66-17.73-10.64,13.48Z"/>
    <path class="cls-1" d="M303.03,140.91l.45-82.27c-2.46-5.04-9.93-18.64-25.98-26.24-7.39-3.5-14.27-4.62-19.15-4.96l-89.36-8.51-15.6-3.55-3.55,12.06,16.31,4.96,96.45,14.89c3.33,2.77,7.39,6.91,10.64,12.77,9.03,16.25,4.83,33.07,3.55,37.59v43.26h26.24Z"/>
    <polygon class="cls-1" points="153.39 15.38 82.9 .49 149.84 27.44 153.39 15.38"/>
    <polygon class="cls-1" points="152.16 239.09 139.69 241.53 137.25 247.56 163.51 260.19 166.01 252.76 161.57 243.3 152.16 239.09"/>
    <path class="cls-1" d="M139.47,348.67l-26.49,33.33,17.6-32-61.78-28.89L13.25,248.36l-11.37-23.69,16.91,18.22,59.35,60.89,36.89,8,4.89-11.56-47.11-53.33-6.22-11.56-3.56-15.11,5.78-11.11,44.18-51.41,5.92,5.28-41.65,49.24c-1.27,1.66-3.1,4.5-4.13,8.44-1.39,5.34-.56,9.82,0,12l5.53,8.89,45.71,51.11,21.2-41.12,9.86,4.74-5.58,50.59-10.37,41.78Z"/>
    <path class="cls-1" d="M101.7,210l28.81-34.94.81-.99-2.59-2.31-30.59,35.13c-.99,2.59-2.22,6.77-2.22,12,0,.89.04,5.12,1.33,9.33,3.26,10.57,13.02,16.29,15.73,17.78l26.41,17.51,1.71-3.32-27.85-17.74c-2.05-1.39-8.71-6.27-11.56-15.56l-.44-9.26.44-7.63Z"/>
  </g>
</svg>