<?xml version="1.0" encoding="utf-8" ?>
<svg baseProfile="full" height="1000" version="1.1" viewBox="-14.85459979422072,-2.660457731910469,561.0825997942208,434.66045773191047" width="1000" xmlns="http://www.w3.org/2000/svg" xmlns:ev="http://www.w3.org/2001/xml-events" xmlns:xlink="http://www.w3.org/1999/xlink"><defs><marker id="id1" markerHeight="4" markerWidth="4" orient="auto" refX="2" refY="2"><path d="M0,0 L0,4 L4,2 Z" fill="black" /></marker><marker id="id2" markerHeight="4" markerWidth="4" orient="auto" refX="2" refY="2"><path d="M0,0 L0,4 L4,2 Z" fill="black" /></marker></defs><polygon fill="#d3d3d3" points="129.91865926773505,188.27609583304596 168.99,199.78 157.43254859615305,240.19441454561576 157.49745140384695,240.2255854543842 180.34,204.74999999999997 222.480825707902,232.4422044035011 185.69,369.55999999999995 241.02917429209802,238.0377955964988 359.77,269.98999999999995 389.56,296.93999999999994 380.77200000000005,355.80999999999995 496.228,355.80999999999995 467.58000000000004,267.50999999999993 457.65000000000003,218.92999999999995 342.05000000000007,165.02999999999994 313.68000000000006,165.02999999999994 305.4170000000001,140.91999999999996 274.42300000000006,140.91999999999996 274.6700000000001,174.95999999999995 248.43000000000006,184.88999999999996 175.38000000000005,183.46999999999997 154.88134073226502,156.67390416695403 137.08000000000004,179.21999999999997" stroke="gray" stroke-miterlimit="10" stroke-opacity="0.4" /><polygon fill="#d3d3d3" points="292.51349999999996,140.91 303.18016959019826,58.654079338026406 277.49999999999994,32.400000000000006 258.34999999999997,27.440000000000005 169.54659241682617,16.290105684982635 153.38999999999996,15.380000000000006 149.83999999999995,27.440000000000005 165.59340758317373,35.03989431501738 262.59999999999997,47.290000000000006 273.53983040980165,60.0459206619736 276.78999999999996,97.65 287.30649999999997,140.91" stroke="gray" stroke-miterlimit="10" stroke-opacity="0.4" /><polygon fill="#d3d3d3" points="140.6227026410385,348.49754842378167 112.98,382.0 129.4272973589615,350.17245157621835 67.95068379865036,322.6858725663158 12.665573777938917,248.93704177521195 1.8800000000000008,224.67000000000002 19.374426222061082,242.31295822478808 78.98931620134965,302.2041274336842 115.03,311.78000000000003 114.76420036152469,310.0024938370652 64.06304872798736,254.87439654573467 55.228846034426866,239.96826927952304 52.29147504917579,219.75218307144928 58.20409741178096,205.20652579297501 104.15592010137689,149.8209557660929 127.74407989862313,170.85904423390713 87.86590258821906,216.12347420702503 83.86852495082424,221.12781692855077 84.49115396557316,228.02173072047702 87.40695127201266,233.56560345426539 130.16162865239838,282.8207387388469 145.57000000000002,251.54000000000002 155.43,256.28000000000003 149.21417098607697,306.9267674240879 140.6227026410385,348.49754842378167" stroke="gray" stroke-miterlimit="10" stroke-opacity="0.4" /><polygon fill="#d3d3d3" points="99.91999999999999,208.445 130.51,175.06 130.02499999999998,172.915 99.91999999999999,208.445 98.585,218.26 99.47,227.555 113.115,244.225 140.245,261.85 113.115,244.225 99.47,227.555 98.585,218.26 99.91999999999999,208.445" stroke="gray" stroke-miterlimit="10" stroke-opacity="0.4" /><polygon fill="#d3d3d3" points="1.88,35.73 45.94786185813611,67.84778491864736 57.73,96.01 52.33,101.65 24.122138141863893,85.78221508135263 1.88,35.73" stroke="gray" stroke-miterlimit="10" stroke-opacity="0.4" /><polygon fill="#d3d3d3" points="53.3,101.29 57.11,97.68 68.05,102.06 90.45021489853407,128.55767430181788 88.89978510146592,130.6423256981821 58.17,110.81 53.3,101.29" stroke="gray" stroke-miterlimit="10" stroke-opacity="0.4" /><polygon fill="#d3d3d3" points="76.7813083215721,146.93638789228135 127.0462649017579,191.91248230952272 157.75373509824212,153.0375176904773 102.5686916784279,112.26361210771866 86.41,133.99" stroke="gray" stroke-miterlimit="10" stroke-opacity="0.4" /><polygon fill="#d3d3d3" points="151.93649150093918,20.31783450666858 82.9,0.49 151.2935084990608,22.502165493331425 153.39,15.38" stroke="gray" stroke-miterlimit="10" stroke-opacity="0.4" /><polygon fill="#d3d3d3" points="152.16,239.09 139.69,241.53 149.06967641832213,253.2447872491778 151.69032358167786,254.5052127508222 166.01,252.76 161.57,243.3 152.16,239.09" stroke="gray" stroke-miterlimit="10" stroke-opacity="0.4" /><text fill="black" font-size="6px" x="122.40679684405438" y="207.9588424537144">Below</text><text fill="black" font-size="6px" x="122.40679684405438" y="213.9588424537144">Rafferty</text><text fill="black" font-size="6px" x="122.40679684405438" y="219.9588424537144">40,272 (32,649)</text><line marker-end="url(#id1)" stroke="black" stroke-width="0.5" x1="132.40679684405438" x2="139.91616191538122" y1="203.9588424537144" y2="192.27609583304596" /><line marker-end="url(#id1)" stroke="black" stroke-width="0.5" x1="167.39320315594568" x2="159.88383808461884" y1="149.5284989789683" y2="161.21124559963673" /><text fill="black" font-size="6px" x="170.30541878804408" y="249.91848281388138">72 (58)</text><line marker-end="url(#id1)" stroke="black" stroke-width="0.5" x1="140.30541878804408" x2="153.8268370576038" y1="234.91848281388138" y2="238.19441454561576" /><line marker-end="url(#id1)" stroke="black" stroke-width="0.5" x1="174.62458121195593" x2="161.1031629423962" y1="243.23323433992078" y2="239.9573026081864" /><text fill="black" font-size="6px" x="247.74728880249054" y="249.97061636530927">Short</text><text fill="black" font-size="6px" x="247.74728880249054" y="255.9706163653093">Creek</text><text fill="black" font-size="6px" x="247.74728880249054" y="261.9706163653093">19,374 (15,707)</text><line marker-end="url(#id1)" stroke="black" stroke-width="0.5" x1="200.74728880249054" x2="214.74744951728906" y1="247.97061636530927" y2="252.4422044035011" /><line marker-end="url(#id1)" stroke="black" stroke-width="0.5" x1="250.76271119750947" x2="236.76255048271096" y1="263.94531616073925" y2="259.4737281225474" /><text fill="black" font-size="6px" x="366.77200000000005" y="367.80999999999995">Souris</text><text fill="black" font-size="6px" x="366.77200000000005" y="373.80999999999995">near</text><text fill="black" font-size="6px" x="366.77200000000005" y="379.80999999999995">Sherwood</text><text fill="black" font-size="6px" x="366.77200000000005" y="385.80999999999995">115,456 (93,600)</text><line marker-end="url(#id1)" stroke="black" stroke-width="0.5" x1="361.77200000000005" x2="376.77200000000005" y1="355.80999999999995" y2="355.80999999999995" /><line marker-end="url(#id1)" stroke="black" stroke-width="0.5" x1="515.2280000000001" x2="500.228" y1="355.80999999999995" y2="355.80999999999995" /><text fill="black" font-size="6px" x="327.4170000000001" y="144.91999999999996">Below</text><text fill="black" font-size="6px" x="327.4170000000001" y="150.91999999999996">Grant</text><text fill="black" font-size="6px" x="327.4170000000001" y="156.91999999999996">Devine</text><text fill="black" font-size="6px" x="327.4170000000001" y="162.91999999999996">30,994 (25,127)</text><line marker-end="url(#id1)" stroke="black" stroke-width="0.5" x1="324.4170000000001" x2="309.4170000000001" y1="150.91999999999996" y2="150.91999999999996" /><line marker-end="url(#id1)" stroke="black" stroke-width="0.5" x1="259.42300000000006" x2="274.42300000000006" y1="150.91999999999996" y2="150.91999999999996" /><text fill="black" font-size="6px" x="315.51349999999996" y="109.91">Grant</text><text fill="black" font-size="6px" x="315.51349999999996" y="115.91">Devine</text><text fill="black" font-size="6px" x="315.51349999999996" y="121.91">Reservoir</text><text fill="black" font-size="6px" x="315.51349999999996" y="127.91">Diversion</text><text fill="black" font-size="6px" x="315.51349999999996" y="133.91">5,207 (4,221)</text><line marker-end="url(#id1)" stroke="black" stroke-width="0.5" x1="311.51349999999996" x2="296.51349999999996" y1="135.91" y2="135.91" /><line marker-end="url(#id1)" stroke="black" stroke-width="0.5" x1="268.30649999999997" x2="283.30649999999997" y1="135.91" y2="135.91" /><text fill="black" font-size="6px" x="327.1592564512347" y="55.025194486223356">Above</text><text fill="black" font-size="6px" x="327.1592564512347" y="61.025194486223356">Grant</text><text fill="black" font-size="6px" x="327.1592564512347" y="67.02519448622336">Devine</text><text fill="black" font-size="6px" x="327.1592564512347" y="73.02519448622336">29,673 (24,056)</text><line marker-end="url(#id1)" stroke="black" stroke-width="0.5" x1="322.1592564512347" x2="307.17576682410066" y1="58.025194486223356" y2="58.654079338026406" /><line marker-end="url(#id1)" stroke="black" stroke-width="0.5" x1="254.5607435487652" x2="269.54423317589925" y1="60.86242945796122" y2="60.23354460615817" /><text fill="black" font-size="6px" x="175.4663561074324" y="-4.225766282440029">Moose</text><text fill="black" font-size="6px" x="175.4663561074324" y="1.7742337175599712">Mountain</text><text fill="black" font-size="6px" x="175.4663561074324" y="7.774233717559971">Creek</text><text fill="black" font-size="6px" x="175.4663561074324" y="13.774233717559973">19,162 (15,535)</text><line marker-end="url(#id1)" stroke="black" stroke-width="0.5" x1="173.4663561074324" x2="170.37180582537485" y1="3.774233717559971" y2="16.290105684982635" /><line marker-end="url(#id1)" stroke="black" stroke-width="0.5" x1="161.6736438925675" x2="164.76819417462505" y1="51.46971861101425" y2="38.95384664359159" /><text fill="black" font-size="6px" x="109.115" y="251.225">Rafferty</text><text fill="black" font-size="6px" x="109.115" y="257.225">to</text><text fill="black" font-size="6px" x="109.115" y="263.225">Boundary</text><text fill="black" font-size="6px" x="109.115" y="269.225">Pipeline</text><text fill="black" font-size="6px" x="109.115" y="275.225">0 (0)</text><line marker-end="url(#id1)" stroke="black" stroke-width="0.5" x1="113.115" x2="113.115" y1="244.225" y2="244.225" /><line marker-end="url(#id1)" stroke="black" stroke-width="0.5" x1="113.115" x2="113.115" y1="244.225" y2="244.225" /><text fill="black" font-size="6px" x="62.627629305096065" y="24.37558910744066">Yellow</text><text fill="black" font-size="6px" x="62.627629305096065" y="30.37558910744066">Grass</text><text fill="black" font-size="6px" x="62.627629305096065" y="36.37558910744066">&amp;</text><text fill="black" font-size="6px" x="62.627629305096065" y="42.37558910744066">Tatagwa</text><text fill="black" font-size="6px" x="62.627629305096065" y="48.37558910744066">Ditches</text><text fill="black" font-size="6px" x="62.627629305096065" y="54.37558910744066">28,249 (22,901)</text><line marker-end="url(#id1)" stroke="black" stroke-width="0.5" x1="60.62762930509607" x2="49.038339215390835" y1="59.37558910744066" y2="67.84778491864736" /><line marker-end="url(#id1)" stroke="black" stroke-width="0.5" x1="9.44237069490393" x2="21.031660784609166" y1="96.79388912721618" y2="88.32169331600947" /><text fill="black" font-size="6px" x="80.71823933289426" y="77.01126120871274">Nickel</text><text fill="black" font-size="6px" x="80.71823933289426" y="83.01126120871274">Lake</text><text fill="black" font-size="6px" x="80.71823933289426" y="89.01126120871274">&amp;</text><text fill="black" font-size="6px" x="80.71823933289426" y="95.01126120871274">Weyburn</text><text fill="black" font-size="6px" x="80.71823933289426" y="101.01126120871274">Diversion</text><text fill="black" font-size="6px" x="80.71823933289426" y="107.01126120871274">2,598 (2,106)</text><line marker-end="url(#id1)" stroke="black" stroke-width="0.5" x1="100.71823933289426" x2="92.61190425313622" y1="112.01126120871274" y2="121.55767430181788" /><line marker-end="url(#id1)" stroke="black" stroke-width="0.5" x1="75.63176066710574" x2="83.73809574686378" y1="141.55431439349852" y2="132.00790130039337" /><text fill="black" font-size="6px" x="57.371241148223774" y="167.92274650027755">Souris</text><text fill="black" font-size="6px" x="57.371241148223774" y="173.92274650027755">River</text><text fill="black" font-size="6px" x="57.371241148223774" y="179.92274650027755">near</text><text fill="black" font-size="6px" x="57.371241148223774" y="185.92274650027755">Ralph</text><text fill="black" font-size="6px" x="57.371241148223774" y="191.92274650027755">43,211 (35,031)</text><line marker-end="url(#id1)" stroke="black" stroke-width="0.5" x1="72.37124114822377" x2="81.37918891665666" y1="162.92274650027755" y2="151.93638789228135" /><line marker-end="url(#id1)" stroke="black" stroke-width="0.5" x1="118.97875885177622" x2="109.97081108334334" y1="106.07884415060391" y2="117.06520275860014" /><text fill="black" font-size="6px" x="144.53092390997406" y="103.94612998501393">Rafferty</text><text fill="black" font-size="6px" x="144.53092390997406" y="109.94612998501393">Reservoir</text><text fill="black" font-size="6px" x="144.53092390997406" y="115.94612998501393">&amp;</text><text fill="black" font-size="6px" x="144.53092390997406" y="121.94612998501393">Estevan</text><text fill="black" font-size="6px" x="144.53092390997406" y="127.94612998501393">Usage</text><text fill="black" font-size="6px" x="144.53092390997406" y="133.94612998501393">49,540 (40,162)</text><line marker-end="url(#id1)" stroke="black" stroke-width="0.5" x1="115.26907609002595" x2="124.56685673086696" y1="202.86499519713826" y2="191.91248230952272" /><line marker-end="url(#id1)" stroke="black" stroke-width="0.5" x1="169.53092390997406" x2="160.23314326913305" y1="138.94612998501393" y2="149.89864287262947" /><text fill="black" font-size="6px" x="122.82224489326029" y="-21.66045773191047">Moose</text><text fill="black" font-size="6px" x="122.82224489326029" y="-15.66045773191047">Mountain</text><text fill="black" font-size="6px" x="122.82224489326029" y="-9.66045773191047">Lake</text><text fill="black" font-size="6px" x="122.82224489326029" y="-3.660457731910469">Diversion</text><text fill="black" font-size="6px" x="122.82224489326029" y="2.339542268089531">2,277 (1,846)</text><line marker-end="url(#id1)" stroke="black" stroke-width="0.5" x1="152.8222448932603" x2="150.54401853090152" y1="6.339542268089529" y2="16.31783450666858" /><line marker-end="url(#id1)" stroke="black" stroke-width="0.5" x1="146.4077551067397" x2="148.68598146909846" y1="34.43405241369883" y2="24.455760175119778" /><text fill="black" font-size="6px" x="42.638317015798734" y="248.06525606918464">Boundary</text><text fill="black" font-size="6px" x="42.638317015798734" y="254.06525606918467">Reservoir</text><text fill="black" font-size="6px" x="42.638317015798734" y="260.06525606918467">Diversion</text><text fill="black" font-size="6px" x="42.638317015798734" y="266.06525606918467">Canal</text><text fill="black" font-size="6px" x="42.638317015798734" y="272.06525606918467">31,607 (25,624)</text><line marker-end="url(#id1)" stroke="black" stroke-width="0.5" x1="37.638317015798734" x2="51.52557676734726" y1="245.06525606918464" y2="239.96826927952304" /><line marker-end="url(#id1)" stroke="black" stroke-width="0.5" x1="102.0816829842013" x2="88.19442323265277" y1="221.4128587713196" y2="226.5098455609812" /><text fill="black" font-size="6px" x="-14.85459979422072" y="263.0571397274388">Long</text><text fill="black" font-size="6px" x="-14.85459979422072" y="269.0571397274388">Creek</text><text fill="black" font-size="6px" x="-14.85459979422072" y="275.0571397274388">near</text><text fill="black" font-size="6px" x="-14.85459979422072" y="281.0571397274388">Maxim</text><text fill="black" font-size="6px" x="-14.85459979422072" y="287.0571397274388">9,428 (7,643)</text><line marker-end="url(#id1)" stroke="black" stroke-width="0.5" x1="-0.8545997942207197" x2="9.819221446957942" y1="257.0571397274388" y2="248.93704177521195" /><line marker-end="url(#id1)" stroke="black" stroke-width="0.5" x1="32.894599794220724" x2="22.22077855304206" y1="231.3824726822244" y2="239.50257063445127" /><text fill="black" font-size="6px" x="53.93645696875022" y="344.2010059086735">At</text><text fill="black" font-size="6px" x="53.93645696875022" y="350.2010059086735">Western</text><text fill="black" font-size="6px" x="53.93645696875022" y="356.2010059086735">Crossing</text><text fill="black" font-size="6px" x="53.93645696875022" y="362.2010059086735">23,267 (18,863)</text><line marker-end="url(#id1)" stroke="black" stroke-width="0.5" x1="58.93645696875022" x2="66.05295183446086" y1="334.2010059086735" y2="322.6858725663158" /><line marker-end="url(#id1)" stroke="black" stroke-width="0.5" x1="88.00354303124979" x2="80.88704816553916" y1="287.16782760959165" y2="298.6829609519493" /><text fill="black" font-size="6px" x="144.4135772310971" y="354.73765578232025">Net</text><text fill="black" font-size="6px" x="144.4135772310971" y="360.73765578232025">Gain</text><text fill="black" font-size="6px" x="144.4135772310971" y="366.73765578232025">in</text><text fill="black" font-size="6px" x="144.4135772310971" y="372.73765578232025">North</text><text fill="black" font-size="6px" x="144.4135772310971" y="378.73765578232025">Dakota</text><text fill="black" font-size="6px" x="144.4135772310971" y="384.73765578232025">11,320 (9,177)</text><line marker-end="url(#id1)" stroke="black" stroke-width="0.5" x1="159.4135772310971" x2="144.57867623894558" y1="346.73765578232025" y2="348.49754842378167" /><line marker-end="url(#id1)" stroke="black" stroke-width="0.5" x1="110.63642276890295" x2="125.47132376105445" y1="352.5241827874454" y2="350.764290145984" /><text fill="black" font-size="6px" x="155.839475989174" y="311.21111455537454">At</text><text fill="black" font-size="6px" x="155.839475989174" y="317.21111455537454">Eastern</text><text fill="black" font-size="6px" x="155.839475989174" y="323.21111455537454">Crossing</text><text fill="black" font-size="6px" x="155.839475989174" y="329.21111455537454">(near</text><text fill="black" font-size="6px" x="155.839475989174" y="335.21111455537454">Noonan)</text><text fill="black" font-size="6px" x="155.839475989174" y="341.21111455537454">34,587 (28,040)</text><line marker-end="url(#id1)" stroke="black" stroke-width="0.5" x1="95.839475989174" x2="110.78004786208244" y1="311.21111455537454" y2="310.0024938370652" /><line marker-end="url(#id1)" stroke="black" stroke-width="0.5" x1="168.13889535842765" x2="153.1983234855192" y1="305.3624377500464" y2="306.5710584683558" /><text fill="black" font-size="6px" x="156.9471536866307" y="264.12740452487736">Boundary</text><text fill="black" font-size="6px" x="156.9471536866307" y="270.12740452487736">Reservoir</text><text fill="black" font-size="6px" x="156.9471536866307" y="276.12740452487736">Diversion</text><text fill="black" font-size="6px" x="156.9471536866307" y="282.12740452487736">2,908 (2,358)</text><line marker-end="url(#id1)" stroke="black" stroke-width="0.5" x1="131.9471536866307" x2="145.46493479059762" y1="249.12740452487736" y2="253.2447872491778" /><line marker-end="url(#id1)" stroke="black" stroke-width="0.5" x1="168.81284631336928" x2="155.29506520940237" y1="260.3563306905895" y2="256.23894796628906" /><g transform="translate(14.854599794220746, 2.660457731910469)" /><line stroke="black" stroke-dasharray="5,5" stroke-width="0.5" x1="0" x2="800" y1="300" y2="300" /><text fill="black" font-size="10px" x="270" y="295">CANADA</text><text fill="black" font-size="10px" x="260" y="310">UNITED STATES</text><path d="M430,300 L460.0,300.0 A30.0,30.0 0 1,1 430.3386875788528,270.0019118821894 Z" fill="blue" stroke="white" stroke-width="1" /><line marker-end="url(#arrow)" stroke="black" stroke-width="0.5" x1="412.93391079488373" x2="395.8678215897674" y1="316.87449552558576" y2="333.7489910511715" /><text fill="black" font-size="6px" x="385.8678215897674" y="340.7489910511715">Flow received by the US</text><text fill="black" font-size="6px" x="385.8678215897674" y="348.7489910511715">120,395 (97,604)</text><path d="M430,300 L430.3386875788528,270.0019118821894 A30.0,30.0 0 0,1 460.0,300.0 Z" fill="red" stroke="white" stroke-width="1" /><line marker-end="url(#arrow)" stroke="black" stroke-width="0.5" x1="447.06608920511627" x2="464.13217841023254" y1="283.12550447441424" y2="266.2510089488285" /><text fill="black" font-size="6px" x="469.13217841023254" y="261.2510089488285">Canada net Depletions</text><text fill="black" font-size="6px" x="469.13217841023254" y="269.2510089488285">39,748 (32,224)</text><rect fill="lightgray" height="40" stroke="black" width="60" x="475.0" y="287" /><text fill="black" font-size="8px" x="480.0" y="300">Canada diverted</text><text fill="black" font-size="8px" x="484.0" y="310">24.8% of the</text><text fill="black" font-size="8px" x="484.0" y="320">Natural flow</text><text fill="black" font-size="7px" font-weight="bold" x="145.68670010288963" y="-40">SCHEMATIC REPRESENTATION OF 2023 FLOWS IN THE SOURIS RIVER BASIN</text><text fill="black" font-size="7px" font-weight="bold" x="185.68670010288963" y="-30">ABOVE SHERWOOD, NORTH DAKOTA, U.S.A.</text><line stroke="black" stroke-width="1" x1="420.0" x2="420.0" y1="30" y2="36" /><text fill="black" font-size="5px" x="420.0" y="28">0</text><line stroke="black" stroke-width="1" x1="430.0" x2="430.0" y1="30" y2="36" /><text fill="black" font-size="5px" x="430.0" y="28">20</text><line stroke="black" stroke-width="1" x1="440.0" x2="440.0" y1="30" y2="36" /><text fill="black" font-size="5px" x="440.0" y="28">40</text><line stroke="black" stroke-width="1" x1="450.0" x2="450.0" y1="30" y2="36" /><text fill="black" font-size="5px" x="450.0" y="28">60</text><line stroke="black" stroke-width="1" x1="460.0" x2="460.0" y1="30" y2="36" /><text fill="black" font-size="5px" x="460.0" y="28">80</text><line stroke="black" stroke-width="1" x1="470.0" x2="470.0" y1="30" y2="36" /><text fill="black" font-size="5px" x="470.0" y="28">100</text><line stroke="black" stroke-width="2" x1="420" x2="470" y1="36" y2="36" /><text fill="black" font-size="5px" x="480" y="35">CUBIC DECAMETRES</text><text fill="black" font-size="5px" x="420" y="43">Dam³ x 1000</text><text fill="black" font-size="5px" x="415" y="15">VALUES SHOWN ARE IN CUBIC</text><text fill="black" font-size="5px" x="417" y="20">DECAMETRES (ACRE-FEET)</text><line stroke="black" stroke-width="1" x1="420.0" x2="420.0" y1="55" y2="61" /><text fill="black" font-size="5px" x="420.0" y="53">0</text><line stroke="black" stroke-width="1" x1="432.33501911927965" x2="432.33501911927965" y1="55" y2="61" /><text fill="black" font-size="5px" x="432.33501911927965" y="53">20</text><line stroke="black" stroke-width="1" x1="444.6700382385593" x2="444.6700382385593" y1="55" y2="61" /><text fill="black" font-size="5px" x="444.6700382385593" y="53">40</text><line stroke="black" stroke-width="1" x1="457.0050573578389" x2="457.0050573578389" y1="55" y2="61" /><text fill="black" font-size="5px" x="457.0050573578389" y="53">60</text><line stroke="black" stroke-width="1" x1="469.34007647711854" x2="469.34007647711854" y1="55" y2="61" /><text fill="black" font-size="5px" x="469.34007647711854" y="53">80</text><line stroke="black" stroke-width="1" x1="481.6750955963982" x2="481.6750955963982" y1="55" y2="61" /><text fill="black" font-size="5px" x="481.6750955963982" y="53">100</text><line stroke="black" stroke-width="2" x1="420" x2="481.6750955963982" y1="61" y2="61" /><text fill="black" font-size="5px" x="491.6750955963982" y="60">ACRE-FEET</text><text fill="black" font-size="5px" x="420" y="68">ACRE-FEET x 1000</text></svg>